<svg width="35" height="35" viewBox="0 0 35 35" fill="none" xmlns="http://www.w3.org/2000/svg">
<path d="M26.25 14.2188H24.0625C24.0616 13.3488 23.7157 12.5147 23.1005 11.8995C22.4853 11.2843 21.6512 10.9384 20.7812 10.9375V8.75C22.2311 8.75174 23.6211 9.32846 24.6463 10.3537C25.6715 11.3789 26.2483 12.7689 26.25 14.2188V14.2188Z" fill="black"/>
<path d="M30.6249 14.2188H28.4374C28.4351 12.1889 27.6277 10.2429 26.1924 8.80753C24.7571 7.37221 22.811 6.56482 20.7812 6.56251V4.37501C23.391 4.3779 25.8931 5.41594 27.7386 7.26137C29.584 9.10681 30.622 11.6089 30.6249 14.2188V14.2188ZM22.2391 23.4959L24.6891 21.0459C25.0171 20.7179 25.4341 20.4933 25.8884 20.4C26.3428 20.3067 26.8146 20.3487 27.2452 20.5209L30.229 21.7153C30.6688 21.8913 31.0457 22.195 31.3113 22.5872C31.5768 22.9795 31.7187 23.4423 31.7187 23.9159V29.342C31.7194 29.6645 31.6544 29.9838 31.5275 30.2803C31.4006 30.5768 31.2145 30.8443 30.9807 31.0663C30.7468 31.2884 30.4701 31.4604 30.1674 31.5719C29.8648 31.6833 29.5426 31.7318 29.2206 31.7144C8.30587 30.4128 4.0818 12.6984 3.29759 5.91501C3.2596 5.58338 3.29226 5.24747 3.39341 4.92936C3.49456 4.61126 3.66192 4.31818 3.88446 4.06939C4.107 3.8206 4.3797 3.62175 4.68461 3.48591C4.98951 3.35007 5.31973 3.28033 5.65352 3.28126H10.9834C11.457 3.28124 11.9198 3.42315 12.3121 3.68868C12.7043 3.95421 13.008 4.33117 13.184 4.77095L14.3773 7.7547C14.5495 8.18539 14.5915 8.65714 14.4982 9.1115C14.4049 9.56585 14.1803 9.98284 13.8523 10.3108L11.4023 12.7608C11.4023 12.7608 12.7607 22.3114 22.2391 23.4959Z" fill="black"/>
</svg>
