<svg width="37" height="37" viewBox="0 0 37 37" fill="none" xmlns="http://www.w3.org/2000/svg">
<path d="M32.2935 12.8035C32.278 11.6359 32.0594 10.4799 31.6476 9.3872C31.2904 8.46552 30.745 7.62847 30.046 6.92953C29.3471 6.23058 28.51 5.68512 27.5884 5.32799C26.5097 4.92309 25.3702 4.70415 24.2183 4.68049C22.7352 4.6142 22.265 4.5957 18.5002 4.5957C14.7355 4.5957 14.2529 4.5957 12.7806 4.68049C11.6293 4.70432 10.4903 4.92326 9.41211 5.32799C8.49028 5.68487 7.6531 6.23025 6.95412 6.92922C6.25515 7.62819 5.70978 8.46538 5.3529 9.3872C4.94718 10.465 4.72871 11.6043 4.70694 12.7557C4.64065 14.2404 4.62061 14.7106 4.62061 18.4753C4.62061 22.2401 4.62061 22.7211 4.70694 24.1949C4.73006 25.3481 4.94744 26.4858 5.3529 27.5665C5.71038 28.4881 6.25615 29.3249 6.95536 30.0236C7.65457 30.7223 8.49183 31.2674 9.41365 31.6242C10.4889 32.0454 11.6281 32.28 12.7822 32.318C14.2668 32.3842 14.737 32.4043 18.5018 32.4043C22.2665 32.4043 22.7491 32.4043 24.2214 32.318C25.3732 32.2953 26.5128 32.0768 27.5914 31.672C28.5129 31.3145 29.3497 30.7688 30.0486 30.07C30.7475 29.3711 31.2931 28.5342 31.6506 27.6128C32.0561 26.5336 32.2735 25.3959 32.2966 24.2412C32.3629 22.7581 32.3829 22.2879 32.3829 18.5216C32.3799 14.7568 32.3799 14.2789 32.2935 12.8035V12.8035ZM18.491 25.5947C14.5536 25.5947 11.3639 22.405 11.3639 18.4676C11.3639 14.5302 14.5536 11.3405 18.491 11.3405C20.3812 11.3405 22.194 12.0914 23.5306 13.428C24.8672 14.7646 25.6181 16.5774 25.6181 18.4676C25.6181 20.3579 24.8672 22.1707 23.5306 23.5073C22.194 24.8439 20.3812 25.5947 18.491 25.5947V25.5947ZM25.9018 12.7388C25.6835 12.739 25.4673 12.6961 25.2655 12.6127C25.0638 12.5292 24.8805 12.4068 24.7262 12.2525C24.5718 12.0981 24.4494 11.9148 24.3659 11.7131C24.2825 11.5114 24.2397 11.2952 24.2399 11.0769C24.2399 10.8587 24.2828 10.6427 24.3663 10.4412C24.4498 10.2396 24.5721 10.0565 24.7264 9.90226C24.8806 9.74801 25.0638 9.62565 25.2653 9.54217C25.4668 9.45869 25.6829 9.41572 25.901 9.41572C26.1191 9.41572 26.3352 9.45869 26.5367 9.54217C26.7382 9.62565 26.9214 9.74801 27.0756 9.90226C27.2299 10.0565 27.3522 10.2396 27.4357 10.4412C27.5192 10.6427 27.5621 10.8587 27.5621 11.0769C27.5621 11.9957 26.8191 12.7388 25.9018 12.7388Z" fill="black"/>
<path d="M18.491 23.0971C21.0478 23.0971 23.1206 21.0244 23.1206 18.4675C23.1206 15.9106 21.0478 13.8379 18.491 13.8379C15.9341 13.8379 13.8613 15.9106 13.8613 18.4675C13.8613 21.0244 15.9341 23.0971 18.491 23.0971Z" fill="black"/>
</svg>
